# xmcd
#
# Track frame offsets:
#	150
#	14753
#	29096
#	44005
#	60258
#	74451
#	86888
#	101208
#	117152
#	137534
#	148535
#
# Disc length: 2230 seconds
#
# Revision: 0
# Processed by: cddbd v1.5.2PL0 Copyright (c) Steve Scherf et al.
# Submitted via: EZCDAudioConverter 1.3.4.1
#
DISCID=a508b40b
DTITLE=Jim Sullivan - Jim Sullivan (1972)
DYEAR=1900
DGENRE=
TTITLE0=Don't Let It Throw You
TTITLE1=Sunny Jim
TTITLE2=Tea Leaves
TTITLE3=The Biblical Boogie
TTITLE4=Lonesome Picker
TTITLE5=Sand Man
TTITLE6=Tom Cat
TTITLE7=You Show Me The Way To Go
TTITLE8=Amos
TTITLE9=I'll Be Here
TTITLE10=Plain To See
EXTD=
EXTT0=
EXTT1=
EXTT2=
EXTT3=
EXTT4=
EXTT5=
EXTT6=
EXTT7=
EXTT8=
EXTT9=
EXTT10=
PLAYORDER=
